<svg width="325" height="208" viewBox="0 0 325 208" fill="none" xmlns="http://www.w3.org/2000/svg">
<g filter="url(#filter0_d_281250_5)">
<path d="M275.065 102.233C119.633 84.156 128.683 131.143 152.637 156.896C155.338 172.196 192.033 167.514 210.042 163.26C213.298 157.709 224.937 146.133 245.447 144.242C265.957 142.352 263.144 137.099 259.173 134.709C289.908 128.309 276.98 124.453 266.674 123.325C355.813 120.132 304.275 105.17 275.065 102.233Z" fill="#D9D9D9"/>
<path d="M278.967 104.068C120.488 87.742 131.193 135.001 156.355 160.671C159.59 176.062 196.716 170.893 214.875 166.385C218.004 160.749 229.455 148.937 250.23 146.78C271.004 144.624 267.977 139.363 263.867 137.002C294.883 130.175 281.626 126.445 271.12 125.434C348.839 114.591 308.734 106.672 278.967 104.068Z" fill="url(#paint0_linear_281250_5)"/>
<path d="M136.577 178.003L110.306 187.8" stroke="#FF6B0A" stroke-width="3" stroke-linecap="round"/>
<path d="M98.125 193.757L109.626 187.08" stroke="#FF6B0A" stroke-width="3" stroke-linecap="round"/>
<path d="M100.839 187.06L109.612 186.498" stroke="#FF6B0A" stroke-width="3" stroke-linecap="round"/>
<path d="M102.26 198.099L110.634 187.242" stroke="#FF6B0A" stroke-width="3" stroke-linecap="round"/>
<path d="M43.7223 77.623C199.9 87.359 182.671 132.001 154.535 153.104C149.167 167.684 113.881 156.577 96.91 149.202C94.688 143.161 85.283 129.707 65.4327 124.214C45.582 118.721 49.2811 114.05 53.612 112.401C24.4961 100.658 37.9029 99.153 48.2458 99.868C-38.9185 80.939 14.4543 75.341 43.7223 77.623Z" fill="#D9D9D9"/>
<path d="M39.1873 80.793C198.052 92.792 179.148 137.407 149.837 158.215C143.927 172.79 108.303 161.128 91.23 153.476C89.149 147.374 79.97 133.721 59.9062 127.92C39.8423 122.118 43.753 117.477 48.2163 115.881C18.899 103.668 32.6072 102.345 43.1259 103.21C-31.4436 78.775 9.4295 78.084 39.1873 80.793Z" fill="url(#paint1_linear_281250_5)"/>
<path d="M206.278 136.027C199.559 167.359 154.361 214.826 27.3242 154.046C88.253 128.042 209.344 88.033 206.278 136.027Z" fill="url(#paint2_linear_281250_5)"/>
<path d="M155.249 54.004C149.204 39.494 157.768 33.852 162.806 32.844C166.585 35.363 180.036 40.401 173.386 40.401C166.736 40.401 168.6 49.47 170.363 54.004C203.01 98.137 183.966 122.773 174.142 129.575C162.806 125.041 143.914 114.612 159.028 109.171C177.92 102.369 162.806 72.141 155.249 54.004Z" fill="#F4F4F4"/>
<path d="M108.126 177.109C109.745 182.863 129.133 182.442 151.43 176.169C173.727 169.896 190.49 160.147 188.872 154.393C187.253 148.639 167.865 149.06 145.568 155.333C123.271 161.606 106.508 171.355 108.126 177.109Z" fill="url(#paint3_radial_281250_5)"/>
<path d="M121.136 176L93.7057 181.812" stroke="#FF6B0A" stroke-width="3" stroke-linecap="round"/>
<path d="M81.038 187.214L93.236 181.92" stroke="#FF6B0A" stroke-width="3" stroke-linecap="round"/>
<path d="M84.512 180.878L93.291 181.34" stroke="#FF6B0A" stroke-width="3" stroke-linecap="round"/>
<path d="M84.64 192.008L94.219 182.198" stroke="#FF6B0A" stroke-width="3" stroke-linecap="round"/>
<path d="M196.694 61.772C175.263 73.589 165.315 66.696 163.02 61.772C147.372 52.468 151.002 20.711 177.791 20.711C204.581 20.711 223.484 47 196.694 61.772Z" fill="#F4F4F4"/>
<path d="M182.013 53.101L185.425 50.904C191.554 46.957 198.941 45.457 206.123 46.701C206.529 46.772 206.855 47.075 206.954 47.475L214.005 76.031C214.461 77.877 212.325 79.258 210.829 78.084L181.906 55.396C181.143 54.798 181.198 53.626 182.013 53.101Z" fill="#DF5B04"/>
<path d="M181.404 52.938L184.201 51.198C190.795 47.097 198.649 45.519 206.315 46.754C206.615 46.803 206.883 46.968 207.062 47.213L224.719 71.507C225.934 73.178 224.127 75.369 222.256 74.496L181.558 55.507C180.505 55.015 180.417 53.551 181.404 52.938Z" fill="#FF6B0A"/>
<path d="M206.082 42.2431C204.561 42.2431 203.328 41.0101 203.328 39.489C203.328 37.968 204.561 36.735 206.082 36.735C207.603 36.735 208.836 37.968 208.836 39.489C208.836 41.0101 207.603 42.2431 206.082 42.2431Z" fill="#797979"/>
<path d="M177.791 44.9971C176.27 44.9971 175.037 43.7641 175.037 42.2431C175.037 40.722 176.27 39.489 177.791 39.489C179.312 39.489 180.545 40.722 180.545 42.2431C180.545 43.7641 179.312 44.9971 177.791 44.9971Z" fill="#797979"/>
<path d="M197.749 5.09298L197.125 1.80298L157.803 9.25998L161.186 27.1L162.568 26.837L195.362 22.701L200.508 19.643L198.157 7.24197L198.35 7.23198L198.321 5.08897L197.749 5.09298Z" fill="#0C0632"/>
<path d="M178.486 10.9395C167.316 13.0577 158.09 13.8749 157.88 12.7648C157.669 11.6546 166.554 9.03753 177.724 6.91933C188.894 4.80113 198.12 3.98393 198.33 5.09407C198.541 6.20421 189.656 8.8213 178.486 10.9395Z" fill="#0C0632"/>
<path d="M200.973 19.614C214.371 20.386 227.088 37.724 171.201 28.573L200.973 19.614Z" fill="#0C0632"/>
<path d="M201.066 19.469C198.981 25.674 165.172 31.754 160.602 27.142L157.921 12.796C163.884 13.602 174.491 8.21999 183.663 9.79299L195.378 20.216L198.322 5.08899L201.066 19.469Z" fill="#494600"/>
<path d="M177.898 7.79175C167.041 9.85042 158.07 10.6194 157.86 9.50922C157.649 8.39908 166.279 5.83025 177.135 3.77157C187.991 1.71289 196.963 0.943953 197.173 2.05409C197.384 3.16424 188.754 5.73307 177.898 7.79175Z" fill="#0C0632"/>
<path d="M178.194 10.9952C167.185 13.0828 158.09 13.8753 157.879 12.7651C157.669 11.655 166.423 9.06266 177.432 6.97502C188.441 4.88738 197.536 4.09495 197.746 5.2051C197.957 6.31524 189.203 8.90755 178.194 10.9952Z" fill="#0C0632"/>
<path d="M193.427 7.39001C193.368 7.46601 193.317 7.52501 193.276 7.58901C192.927 8.11201 192.787 8.62202 192.889 9.23602C192.932 9.49602 193.006 9.75402 193.065 10.008C193.119 10.233 193.171 10.454 193.22 10.68C193.232 10.739 193.248 10.76 193.316 10.745C193.457 10.708 193.597 10.73 193.7 10.842C193.794 10.939 193.814 11.059 193.776 11.181C193.739 11.307 193.645 11.386 193.526 11.433C193.465 11.455 193.416 11.445 193.364 11.4C192.959 11.067 192.646 10.664 192.411 10.198C192.218 9.81101 192.105 9.39501 191.978 8.98901C191.904 8.75801 191.821 8.52602 191.756 8.29202C191.712 8.14502 191.659 8.01002 191.573 7.88302C191.486 7.75602 191.376 7.65101 191.234 7.57101C191.168 7.71701 191.145 7.86901 191.167 8.01901C191.19 8.16001 191.232 8.30301 191.276 8.43601C191.323 8.58201 191.391 8.72002 191.445 8.85902C191.591 9.22702 191.74 9.59302 191.873 9.96602C192.092 10.587 192.142 11.224 192.015 11.87C192 11.957 191.951 11.997 191.872 12.016C191.673 12.069 191.475 11.973 191.41 11.793C191.35 11.625 191.444 11.42 191.631 11.344C191.698 11.315 191.693 11.29 191.665 11.237C191.524 10.958 191.386 10.673 191.249 10.392C191.09 10.074 190.951 9.75002 190.702 9.48602C190.373 9.13902 190.009 8.95801 189.539 8.85101C189.505 8.84501 189.471 8.83902 189.422 8.83002C189.435 8.86602 189.443 8.89002 189.452 8.91402C190.007 10.462 190.538 11.947 191.093 13.496C191.125 13.584 191.125 13.584 191.209 13.554C191.527 13.44 191.85 13.325 192.168 13.211C192.224 13.191 192.254 13.198 192.286 13.25C192.531 13.641 192.874 13.915 193.319 14.054C193.412 14.084 193.502 14.133 193.593 14.172C193.7 13.899 193.902 13.664 193.968 13.365C194.021 13.12 194.046 12.872 194.007 12.624C194 12.568 194.019 12.543 194.067 12.526C194.393 12.409 194.716 12.294 195.042 12.177C195.098 12.157 195.118 12.136 195.095 12.072C194.537 10.515 194.001 9.01801 193.444 7.46101C193.449 7.45001 193.443 7.43401 193.427 7.39001ZM193.328 8.23002C193.338 8.23102 193.35 8.22701 193.359 8.22801C193.369 8.25601 193.379 8.28401 193.389 8.31201C193.657 9.06001 193.904 9.74902 194.172 10.497C194.216 10.621 194.216 10.621 194.088 10.667C194.039 10.685 194.011 10.681 193.981 10.637C193.88 10.507 193.743 10.429 193.585 10.405C193.517 10.393 193.496 10.36 193.484 10.301C193.421 10.012 193.361 9.71701 193.286 9.43201C193.211 9.13401 193.198 8.89502 193.253 8.59102C193.272 8.46702 193.304 8.35102 193.328 8.23002ZM190.014 9.43002C190.022 9.42702 190.025 9.42201 190.033 9.41901C190.068 9.44201 190.104 9.46601 190.136 9.49101C190.379 9.67401 190.575 9.81601 190.717 10.086C190.894 10.429 191.064 10.775 191.237 11.119C191.262 11.164 191.262 11.201 191.223 11.246C191.118 11.37 191.06 11.512 191.06 11.679C191.061 11.756 191.022 11.788 190.91 11.805C190.841 11.816 190.848 11.76 190.835 11.724C190.563 10.963 190.312 10.263 190.038 9.49802C190.026 9.47602 190.017 9.45202 190.014 9.43002ZM193.7 11.741C193.718 11.73 193.741 11.717 193.766 11.699C194 11.552 194.153 11.357 194.14 11.068C194.139 11.028 194.15 11.006 194.188 10.997C194.216 10.987 194.244 10.977 194.272 10.967C194.312 10.952 194.334 10.963 194.349 11.003C194.456 11.303 194.565 11.607 194.668 11.909C194.674 11.925 194.655 11.972 194.639 11.978C194.423 12.06 194.201 12.139 193.982 12.213C193.966 12.219 193.924 12.202 193.914 12.188C193.844 12.042 193.773 11.895 193.7 11.741ZM191.976 12.358C192.017 12.524 192.052 12.683 192.091 12.845C192.103 12.891 192.071 12.902 192.039 12.914C191.833 12.987 191.63 13.055 191.427 13.133C191.362 13.156 191.333 13.139 191.316 13.078C191.224 12.808 191.124 12.541 191.026 12.269C190.982 12.145 190.982 12.145 191.107 12.101C191.143 12.088 191.175 12.076 191.203 12.116C191.36 12.326 191.579 12.392 191.829 12.379C191.882 12.374 191.931 12.361 191.976 12.358ZM192.426 10.924C192.649 11.192 192.869 11.451 193.142 11.669C193.048 11.798 192.96 11.92 192.866 12.039C192.854 12.057 192.811 12.064 192.787 12.059C192.659 12.032 192.537 11.995 192.409 11.968C192.37 11.96 192.354 11.943 192.362 11.899C192.423 11.602 192.429 11.302 192.42 10.998C192.425 10.974 192.425 10.947 192.426 10.924ZM193.643 12.687C193.734 12.889 193.661 13.385 193.547 13.484C193.542 13.482 193.536 13.479 193.536 13.479C193.462 13.271 193.383 13.064 193.314 12.859C193.308 12.843 193.328 12.809 193.343 12.799C193.44 12.755 193.542 12.723 193.643 12.687ZM193.212 13.614C193.003 13.575 192.648 13.219 192.619 13.049C192.707 13.017 192.804 12.983 192.893 12.951C192.945 12.932 192.968 12.947 192.985 12.995C193.046 13.163 193.106 13.331 193.166 13.499C193.183 13.533 193.196 13.57 193.212 13.614ZM193.389 12.421C193.337 12.44 193.282 12.464 193.226 12.475C193.21 12.481 193.167 12.46 193.166 12.447C193.127 12.262 193.186 12.069 193.341 11.969C193.374 11.948 193.397 11.949 193.418 11.982C193.473 12.084 193.523 12.188 193.58 12.294C193.598 12.333 193.58 12.357 193.543 12.37C193.494 12.384 193.441 12.402 193.389 12.421ZM192.648 12.687C192.6 12.704 192.555 12.72 192.507 12.737C192.46 12.758 192.425 12.748 192.414 12.693C192.39 12.589 192.367 12.485 192.347 12.379C192.338 12.328 192.358 12.307 192.412 12.306C192.58 12.295 192.776 12.41 192.836 12.565C192.842 12.581 192.824 12.619 192.809 12.629C192.754 12.653 192.7 12.668 192.648 12.687Z" fill="#FFD500"/>
<path d="M176.263 63.1098C171.963 66.7673 165.241 65.927 161.248 61.2331C157.256 56.5391 157.506 49.7689 161.806 46.1114C166.107 42.454 172.829 43.2942 176.822 47.9882C180.814 52.6822 180.564 59.4524 176.263 63.1098Z" fill="url(#paint4_radial_281250_5)"/>
</g>
<defs>
<filter id="filter0_d_281250_5" x="0.557663" y="1.54584" width="324.063" height="206.053" filterUnits="userSpaceOnUse" color-interpolation-filters="sRGB">
<feFlood flood-opacity="0" result="BackgroundImageFix"/>
<feColorMatrix in="SourceAlpha" type="matrix" values="0 0 0 0 0 0 0 0 0 0 0 0 0 0 0 0 0 0 127 0" result="hardAlpha"/>
<feOffset dx="4" dy="4"/>
<feGaussianBlur stdDeviation="2"/>
<feComposite in2="hardAlpha" operator="out"/>
<feColorMatrix type="matrix" values="0 0 0 0 0 0 0 0 0 0 0 0 0 0 0 0 0 0 0.25 0"/>
<feBlend mode="normal" in2="BackgroundImageFix" result="effect1_dropShadow_281250_5"/>
<feBlend mode="normal" in="SourceGraphic" in2="effect1_dropShadow_281250_5" result="shape"/>
</filter>
<linearGradient id="paint0_linear_281250_5" x1="220.066" y1="98.949" x2="227.673" y2="166.347" gradientUnits="userSpaceOnUse">
<stop stop-color="#F4F4F4"/>
<stop offset="1" stop-color="#F1EFEF"/>
</linearGradient>
<linearGradient id="paint1_linear_281250_5" x1="98.063" y1="86.186" x2="78.641" y2="151.172" gradientUnits="userSpaceOnUse">
<stop stop-color="#F4F4F4"/>
<stop offset="1" stop-color="#F1EFEF"/>
</linearGradient>
<linearGradient id="paint2_linear_281250_5" x1="154.299" y1="120.293" x2="79.066" y2="171.421" gradientUnits="userSpaceOnUse">
<stop stop-color="#F4F4F4"/>
<stop offset="1" stop-color="#F1EFEF"/>
</linearGradient>
<radialGradient id="paint3_radial_281250_5" cx="0" cy="0" r="1" gradientUnits="userSpaceOnUse" gradientTransform="translate(148.499 165.751) rotate(164.287) scale(41.9399 10.8225)">
<stop stop-color="#E8E8E8"/>
<stop offset="1" stop-color="#EFEFEF" stop-opacity="0.5"/>
</radialGradient>
<radialGradient id="paint4_radial_281250_5" cx="0" cy="0" r="1" gradientUnits="userSpaceOnUse" gradientTransform="translate(169.035 54.6106) rotate(49.619) scale(11.1574 10.2219)">
<stop stop-color="#FFBBBB"/>
<stop offset="1" stop-color="#FFBBBB" stop-opacity="0"/>
</radialGradient>
</defs>
</svg>
