<svg width="192" height="124" viewBox="0 0 192 124" fill="none" xmlns="http://www.w3.org/2000/svg">
<g filter="url(#filter0_d_281250_5)">
<path d="M159.497 58.8638C69.5022 48.4587 74.7421 75.5043 88.6115 90.3276C90.1753 99.1343 111.422 96.4394 121.849 93.9908C123.734 90.7956 130.473 84.1325 142.348 83.044C154.224 81.9562 152.595 78.9325 150.296 77.5569C168.091 73.873 160.606 71.6535 154.639 71.0043C206.25 69.1664 176.41 60.5543 159.497 58.8638Z" fill="#D9D9D9"/>
<path d="M161.756 59.92C69.9972 50.5228 76.1954 77.7249 90.7642 92.5005C92.6372 101.36 114.133 98.3843 124.647 95.7895C126.459 92.5454 133.089 85.7465 145.118 84.5049C157.146 83.2639 155.393 80.2357 153.013 78.8767C170.972 74.9471 163.296 72.8001 157.213 72.2182C202.212 65.977 178.991 61.4188 161.756 59.92Z" fill="url(#paint0_linear_281250_5)"/>
<path d="M79.313 102.477L64.1019 108.116" stroke="#FF6B0A" stroke-width="3" stroke-linecap="round"/>
<path d="M57.049 111.545L63.7081 107.701" stroke="#FF6B0A" stroke-width="3" stroke-linecap="round"/>
<path d="M58.6205 107.69L63.7 107.366" stroke="#FF6B0A" stroke-width="3" stroke-linecap="round"/>
<path d="M59.4432 114.044L64.2917 107.795" stroke="#FF6B0A" stroke-width="3" stroke-linecap="round"/>
<path d="M25.5499 44.6983C115.977 50.3023 106.001 75.9981 89.7104 88.145C86.6023 96.5372 66.1718 90.144 56.3456 85.899C55.059 82.4218 49.6136 74.6777 38.1202 71.516C26.6267 68.3542 28.7685 65.6656 31.2761 64.7164C14.418 57.9572 22.1805 57.0909 28.169 57.5025C-22.299 46.607 8.6038 43.3848 25.5499 44.6983Z" fill="#D9D9D9"/>
<path d="M22.9242 46.5229C114.907 53.4295 103.961 79.1098 86.9903 91.0869C83.5684 99.4762 62.9421 92.7636 53.0569 88.3591C51.852 84.8468 46.5373 76.9882 34.9204 73.6491C23.3034 70.3095 25.5677 67.6382 28.152 66.7195C11.1773 59.6897 19.1143 58.9282 25.2046 59.4261C-17.971 45.3614 5.69445 44.9637 22.9242 46.5229Z" fill="url(#paint1_linear_281250_5)"/>
<path d="M119.67 78.3155C115.779 96.3501 89.6096 123.672 16.0555 88.6872C51.3332 73.7194 121.445 50.6903 119.67 78.3155Z" fill="url(#paint2_linear_281250_5)"/>
<path d="M90.1238 31.1032C86.6238 22.7513 91.5823 19.5038 94.4993 18.9236C96.6873 20.3735 104.475 23.2734 100.625 23.2734C96.7748 23.2734 97.854 28.4935 98.8748 31.1032C117.777 56.5061 106.751 70.6865 101.063 74.6017C94.4993 71.992 83.5609 65.9891 92.3119 62.8572C103.25 58.942 94.4993 41.5428 90.1238 31.1032Z" fill="#F4F4F4"/>
<path d="M62.8398 101.962C63.777 105.274 75.0025 105.032 87.9125 101.421C100.823 97.8105 110.529 92.1988 109.591 88.8869C108.654 85.5751 97.4286 85.8173 84.5186 89.4279C71.6085 93.0385 61.9026 98.6503 62.8398 101.962Z" fill="url(#paint3_radial_281250_5)"/>
<path d="M70.3722 101.324L54.4903 104.669" stroke="#FF6B0A" stroke-width="3" stroke-linecap="round"/>
<path d="M47.1557 107.779L54.2183 104.731" stroke="#FF6B0A" stroke-width="3" stroke-linecap="round"/>
<path d="M49.1671 104.132L54.2502 104.398" stroke="#FF6B0A" stroke-width="3" stroke-linecap="round"/>
<path d="M49.2413 110.538L54.7875 104.891" stroke="#FF6B0A" stroke-width="3" stroke-linecap="round"/>
<path d="M114.12 35.5745C101.712 42.3763 95.952 38.4087 94.6232 35.5745C85.563 30.2191 87.6648 11.9399 103.176 11.9399C118.687 11.9399 129.632 27.0718 114.12 35.5745Z" fill="#F4F4F4"/>
<path d="M105.62 30.5835L107.596 29.3189C111.144 27.047 115.421 26.1836 119.58 26.8997C119.815 26.9405 120.004 27.1149 120.061 27.3452L124.143 43.782C124.407 44.8445 123.171 45.6394 122.305 44.9636L105.558 31.9045C105.116 31.5603 105.148 30.8857 105.62 30.5835Z" fill="#DF5B04"/>
<path d="M105.268 30.4896L106.887 29.4881C110.705 27.1276 115.252 26.2193 119.691 26.9301C119.865 26.9583 120.02 27.0533 120.123 27.1943L130.347 41.1779C131.05 42.1397 130.004 43.4009 128.921 42.8984L105.357 31.9684C104.747 31.6852 104.696 30.8425 105.268 30.4896Z" fill="#FF6B0A"/>
<path d="M119.556 24.3337C118.675 24.3337 117.961 23.6239 117.961 22.7484C117.961 21.8729 118.675 21.1632 119.556 21.1632C120.437 21.1632 121.151 21.8729 121.151 22.7484C121.151 23.6239 120.437 24.3337 119.556 24.3337Z" fill="#797979"/>
<path d="M103.176 25.9189C102.295 25.9189 101.581 25.2092 101.581 24.3337C101.581 23.4582 102.295 22.7485 103.176 22.7485C104.056 22.7485 104.77 23.4582 104.77 24.3337C104.77 25.2092 104.056 25.9189 103.176 25.9189Z" fill="#797979"/>
<path d="M114.731 2.95017L114.37 1.05646L91.6025 5.34869L93.5613 15.6174L94.3615 15.466L113.349 13.0853L116.329 11.3251L114.967 4.18713L115.079 4.18138L115.062 2.94787L114.731 2.95017Z" fill="#0C0632"/>
<path d="M103.578 6.31544C97.1106 7.53468 91.7689 8.00505 91.647 7.36606C91.5252 6.72706 96.6692 5.22067 103.137 4.00144C109.604 2.78221 114.946 2.31183 115.068 2.95083C115.19 3.58982 110.046 5.09621 103.578 6.31544Z" fill="#0C0632"/>
<path d="M116.598 11.3084C124.355 11.7528 131.719 21.7325 99.36 16.4652L116.598 11.3084Z" fill="#0C0632"/>
<path d="M116.652 11.225C115.445 14.7966 95.8692 18.2962 93.2232 15.6415L91.6709 7.38401C95.1235 7.84794 101.265 4.75007 106.575 5.65549L113.358 11.6549L115.063 2.94788L116.652 11.225Z" fill="#494600"/>
<path d="M103.237 4.50359C96.9516 5.68856 91.7572 6.13116 91.6353 5.49216C91.5134 4.85317 96.5102 3.37455 102.796 2.18958C109.082 1.00461 114.276 0.562014 114.398 1.20101C114.52 1.84 109.523 3.31862 103.237 4.50359Z" fill="#0C0632"/>
<path d="M103.409 6.3475C97.0348 7.54914 91.7687 8.00525 91.6468 7.36626C91.5249 6.72726 96.5934 5.23513 102.968 4.03349C109.342 2.83185 114.608 2.37573 114.73 3.01473C114.852 3.65372 109.783 5.14585 103.409 6.3475Z" fill="#0C0632"/>
<path d="M112.229 4.27234C112.195 4.31608 112.165 4.35004 112.141 4.38688C111.939 4.68792 111.858 4.98148 111.917 5.33489C111.942 5.48455 111.985 5.63305 112.019 5.77926C112.05 5.90877 112.081 6.03597 112.109 6.16606C112.116 6.20002 112.125 6.21211 112.165 6.20347C112.246 6.18217 112.327 6.19484 112.387 6.2593C112.441 6.31514 112.453 6.38421 112.431 6.45443C112.409 6.52696 112.355 6.57243 112.286 6.59948C112.251 6.61214 112.222 6.60639 112.192 6.58049C111.958 6.38881 111.777 6.15684 111.641 5.88862C111.529 5.66586 111.463 5.42641 111.39 5.19272C111.347 5.05976 111.299 4.92622 111.261 4.79153C111.236 4.70692 111.205 4.62921 111.155 4.55611C111.105 4.48301 111.041 4.42257 110.959 4.37652C110.921 4.46056 110.908 4.54805 110.92 4.63439C110.934 4.71555 110.958 4.79786 110.983 4.87441C111.011 4.95845 111.05 5.03788 111.081 5.11789C111.166 5.32971 111.252 5.54038 111.329 5.75508C111.456 6.11253 111.485 6.47918 111.411 6.85102C111.403 6.9011 111.374 6.92412 111.328 6.93505C111.213 6.96556 111.099 6.9103 111.061 6.8067C111.026 6.71 111.081 6.592 111.189 6.54825C111.228 6.53156 111.225 6.51717 111.209 6.48666C111.127 6.32607 111.047 6.16203 110.968 6.00028C110.876 5.81724 110.795 5.63075 110.651 5.47879C110.461 5.27906 110.25 5.17488 109.978 5.11329C109.958 5.10983 109.938 5.10638 109.91 5.1012C109.917 5.12192 109.922 5.13574 109.927 5.14955C110.249 6.04058 110.556 6.89534 110.877 7.78694C110.896 7.83759 110.896 7.83759 110.945 7.82032C111.129 7.75471 111.316 7.68851 111.5 7.62289C111.532 7.61138 111.55 7.61541 111.568 7.64534C111.71 7.8704 111.909 8.02811 112.166 8.10812C112.22 8.12539 112.272 8.15359 112.325 8.17604C112.387 8.0189 112.504 7.88364 112.542 7.71153C112.573 7.57051 112.587 7.42777 112.565 7.28502C112.561 7.25278 112.572 7.23839 112.599 7.22861C112.788 7.16126 112.975 7.09507 113.164 7.02773C113.196 7.01621 113.208 7.00413 113.195 6.96729C112.871 6.07108 112.561 5.20941 112.239 4.31321C112.242 4.30687 112.238 4.29767 112.229 4.27234ZM112.171 4.75584C112.177 4.75642 112.184 4.75411 112.189 4.75469C112.195 4.77081 112.201 4.78692 112.207 4.80304C112.362 5.23359 112.505 5.63018 112.66 6.06072C112.686 6.1321 112.686 6.1321 112.612 6.15857C112.583 6.16893 112.567 6.16663 112.55 6.14131C112.491 6.06648 112.412 6.02158 112.32 6.00777C112.281 6.00086 112.269 5.98187 112.262 5.94791C112.225 5.78156 112.191 5.61175 112.147 5.44771C112.104 5.27618 112.096 5.13862 112.128 4.96363C112.139 4.89226 112.158 4.82549 112.171 4.75584ZM110.253 5.44656C110.257 5.44483 110.259 5.44195 110.264 5.44023C110.284 5.45346 110.305 5.46728 110.323 5.48167C110.464 5.587 110.577 5.66874 110.66 5.82415C110.762 6.02158 110.861 6.22074 110.961 6.41874C110.975 6.44465 110.975 6.46594 110.953 6.49185C110.892 6.56322 110.858 6.64495 110.858 6.74108C110.859 6.7854 110.836 6.80382 110.771 6.8136C110.732 6.81993 110.736 6.7877 110.728 6.76698C110.571 6.32895 110.425 5.92603 110.267 5.4857C110.26 5.47304 110.254 5.45922 110.253 5.44656ZM112.387 6.77676C112.397 6.77043 112.411 6.76295 112.425 6.75259C112.561 6.66798 112.649 6.55574 112.642 6.38939C112.641 6.36636 112.647 6.3537 112.669 6.34852C112.686 6.34277 112.702 6.33701 112.718 6.33125C112.741 6.32262 112.754 6.32895 112.763 6.35197C112.825 6.52465 112.888 6.69963 112.947 6.87346C112.951 6.88267 112.94 6.90973 112.931 6.91318C112.805 6.96038 112.677 7.00585 112.55 7.04845C112.541 7.0519 112.517 7.04212 112.511 7.03406C112.47 6.95002 112.429 6.86541 112.387 6.77676ZM111.389 7.13191C111.412 7.22746 111.433 7.31898 111.455 7.41223C111.462 7.4387 111.444 7.44503 111.425 7.45194C111.306 7.49396 111.188 7.5331 111.071 7.578C111.033 7.59124 111.016 7.58145 111.007 7.54634C110.953 7.39093 110.895 7.23724 110.839 7.08068C110.813 7.0093 110.813 7.00931 110.886 6.98398C110.906 6.9765 110.925 6.96959 110.941 6.99261C111.032 7.11349 111.159 7.15148 111.304 7.14399C111.334 7.14112 111.363 7.13364 111.389 7.13191ZM111.649 6.3065C111.778 6.46076 111.906 6.60984 112.064 6.73532C112.009 6.80957 111.958 6.8798 111.904 6.94829C111.897 6.95865 111.872 6.96268 111.858 6.9598C111.784 6.94426 111.713 6.92297 111.639 6.90743C111.617 6.90282 111.608 6.89304 111.612 6.86771C111.647 6.69676 111.651 6.52408 111.646 6.3491C111.649 6.33528 111.649 6.31974 111.649 6.3065ZM112.354 7.32128C112.407 7.43755 112.364 7.72305 112.298 7.78003C112.295 7.77888 112.292 7.77715 112.292 7.77715C112.249 7.65743 112.203 7.53828 112.163 7.42028C112.16 7.41107 112.171 7.39151 112.18 7.38575C112.236 7.36042 112.295 7.342 112.354 7.32128ZM112.104 7.85486C111.983 7.83241 111.778 7.6275 111.761 7.52965C111.812 7.51123 111.868 7.49166 111.92 7.47324C111.95 7.4623 111.963 7.47094 111.973 7.49857C112.008 7.59527 112.043 7.69197 112.078 7.78867C112.088 7.80824 112.095 7.82953 112.104 7.85486ZM112.207 7.16817C112.177 7.17911 112.145 7.19292 112.112 7.19925C112.103 7.20271 112.078 7.19062 112.078 7.18314C112.055 7.07665 112.089 6.96556 112.179 6.908C112.198 6.89591 112.211 6.89649 112.224 6.91549C112.255 6.9742 112.284 7.03406 112.317 7.09507C112.328 7.11752 112.317 7.13133 112.296 7.13882C112.268 7.14688 112.237 7.15723 112.207 7.16817ZM111.778 7.32128C111.75 7.33106 111.724 7.34027 111.696 7.35006C111.669 7.36215 111.649 7.35639 111.642 7.32473C111.628 7.26487 111.615 7.20501 111.603 7.14399C111.598 7.11464 111.61 7.10255 111.641 7.10198C111.738 7.09565 111.852 7.16184 111.887 7.25106C111.89 7.26027 111.88 7.28214 111.871 7.28789C111.839 7.30171 111.808 7.31034 111.778 7.32128Z" fill="#FFD500"/>
<path d="M102.291 36.3446C99.8012 38.4498 95.9089 37.9661 93.5975 35.2643C91.286 32.5625 91.4306 28.6656 93.9206 26.5603C96.4105 24.4551 100.303 24.9387 102.614 27.6406C104.926 30.3424 104.781 34.2393 102.291 36.3446Z" fill="url(#paint4_radial_281250_5)"/>
</g>
<defs>
<filter id="filter0_d_281250_5" x="0.557663" y="0.908447" width="191" height="122.636" filterUnits="userSpaceOnUse" color-interpolation-filters="sRGB">
<feFlood flood-opacity="0" result="BackgroundImageFix"/>
<feColorMatrix in="SourceAlpha" type="matrix" values="0 0 0 0 0 0 0 0 0 0 0 0 0 0 0 0 0 0 127 0" result="hardAlpha"/>
<feOffset dx="4" dy="4"/>
<feGaussianBlur stdDeviation="2"/>
<feComposite in2="hardAlpha" operator="out"/>
<feColorMatrix type="matrix" values="0 0 0 0 0 0 0 0 0 0 0 0 0 0 0 0 0 0 0.25 0"/>
<feBlend mode="normal" in2="BackgroundImageFix" result="effect1_dropShadow_281250_5"/>
<feBlend mode="normal" in="SourceGraphic" in2="effect1_dropShadow_281250_5" result="shape"/>
</filter>
<linearGradient id="paint0_linear_281250_5" x1="127.653" y1="56.9735" x2="132.006" y2="95.7733" gradientUnits="userSpaceOnUse">
<stop stop-color="#F4F4F4"/>
<stop offset="1" stop-color="#F1EFEF"/>
</linearGradient>
<linearGradient id="paint1_linear_281250_5" x1="57.0132" y1="49.6271" x2="45.8889" y2="87.0689" gradientUnits="userSpaceOnUse">
<stop stop-color="#F4F4F4"/>
<stop offset="1" stop-color="#F1EFEF"/>
</linearGradient>
<linearGradient id="paint2_linear_281250_5" x1="89.5738" y1="69.2591" x2="46.1764" y2="98.926" gradientUnits="userSpaceOnUse">
<stop stop-color="#F4F4F4"/>
<stop offset="1" stop-color="#F1EFEF"/>
</linearGradient>
<radialGradient id="paint3_radial_281250_5" cx="0" cy="0" r="1" gradientUnits="userSpaceOnUse" gradientTransform="translate(86.2156 95.4245) rotate(164.375) scale(24.2727 6.23209)">
<stop stop-color="#E8E8E8"/>
<stop offset="1" stop-color="#EFEFEF" stop-opacity="0.5"/>
</radialGradient>
<radialGradient id="paint4_radial_281250_5" cx="0" cy="0" r="1" gradientUnits="userSpaceOnUse" gradientTransform="translate(98.1059 31.4524) rotate(49.4524) scale(6.43813 5.9038)">
<stop stop-color="#FFBBBB"/>
<stop offset="1" stop-color="#FFBBBB" stop-opacity="0"/>
</radialGradient>
</defs>
</svg>
