<svg width="100" height="30" viewBox="0 0 100 30" fill="none" xmlns="http://www.w3.org/2000/svg">
<path fill-rule="evenodd" clip-rule="evenodd" d="M43.8462 0H0V30H43.8462L55.3846 15L43.8462 0ZM19.6567 12.9712C19.5886 12.9167 19.5215 12.8622 19.4547 12.8081C19.286 12.6713 19.1199 12.5367 18.949 12.4076C18.4829 12.0518 17.9766 11.7685 17.3959 11.6422C16.7549 11.502 16.1076 11.4512 15.4681 11.6453C14.556 11.9209 13.9212 12.5215 13.5015 13.3578C13.1531 14.0539 13.0602 14.7916 13.1516 15.5585C13.2243 16.1591 13.4179 16.7166 13.7725 17.211C14.3176 17.9702 15.0608 18.4091 15.9899 18.5246C16.8261 18.6293 17.6359 18.5246 18.4024 18.1581C18.6641 18.0326 18.6641 18.0303 18.6641 17.7413V17.7361C18.6641 17.6657 18.6643 17.5955 18.6645 17.5254C18.6648 17.3854 18.6651 17.2451 18.6641 17.1047C18.6639 17.0765 18.6643 17.0524 18.6646 17.0319C18.6656 16.9734 18.666 16.9434 18.6512 16.9282C18.6355 16.9121 18.6028 16.9125 18.5356 16.9133C18.5187 16.9135 18.4997 16.9137 18.4783 16.9137H16.0472C16.0255 16.9137 16.0062 16.914 15.9892 16.9142C15.921 16.915 15.8878 16.9154 15.872 16.8991C15.857 16.8837 15.8577 16.8533 15.8589 16.7939C15.8593 16.7741 15.8598 16.7511 15.8598 16.7243C15.8588 16.0775 15.8591 15.4307 15.8595 14.7839C15.8597 14.4605 15.8598 14.137 15.8598 13.8136C15.8598 13.8019 15.8602 13.79 15.8605 13.7781C15.8612 13.754 15.8619 13.7295 15.8598 13.7058C15.8552 13.6489 15.8753 13.6181 15.9373 13.6242C15.9611 13.6263 15.9856 13.6256 16.0098 13.6249C16.0219 13.6246 16.0338 13.6242 16.0457 13.6242H22.1915C22.2318 13.6242 22.2658 13.6319 22.2597 13.6827C22.2569 13.7133 22.2762 13.7339 22.2959 13.7549C22.3199 13.7804 22.3445 13.8065 22.3309 13.8521C22.3191 13.8914 22.3221 13.9343 22.3251 13.9774C22.3264 13.9968 22.3278 14.0163 22.3278 14.0354L22.3277 15.1409C22.3274 16.6147 22.3272 18.0892 22.3309 19.5626C22.3309 19.6827 22.2937 19.7582 22.2024 19.8337C21.058 20.7808 19.7713 21.443 18.3157 21.771C17.4548 21.9651 16.583 22.019 15.7019 21.9481C14.6613 21.865 13.6719 21.5985 12.7583 21.0934C11.0813 20.1663 10.0252 18.7587 9.539 16.9214C9.32531 16.1098 9.26027 15.2828 9.3284 14.4481C9.5839 11.3527 11.761 8.9379 14.6784 8.26641C15.5114 8.07391 16.3523 8.04619 17.2008 8.10317C17.8512 8.14783 18.4907 8.24947 19.1163 8.43428C20.0531 8.71302 20.88 9.1935 21.6325 9.8095C21.7208 9.8819 21.8075 9.9543 21.8927 10.0282C22.0011 10.1206 22.0042 10.173 21.9097 10.2869C21.4359 10.8568 20.962 11.425 20.4867 11.9933C20.2497 12.2782 20.0128 12.5631 19.7744 12.8465C19.7682 12.8544 19.7622 12.8625 19.756 12.8708C19.7298 12.9062 19.7019 12.9438 19.6567 12.9712ZM31.7515 8.07692C33.5152 8.09078 35.2216 8.71142 36.654 10.0143C37.7658 11.0276 38.4471 12.2905 38.7196 13.7643C39.0231 15.4044 38.8048 16.9753 37.9903 18.4398C37.024 20.177 35.5499 21.2905 33.6267 21.7941C31.9714 22.2283 30.33 22.1406 28.7459 21.483C26.6834 20.6252 25.3502 19.0851 24.7246 16.9691C24.1656 15.0764 24.3684 13.2361 25.3687 11.5204C26.3427 9.848 27.8091 8.80074 29.6828 8.31254C30.3285 8.14468 30.937 8.07846 31.7515 8.07692ZM31.3334 11.599C30.3656 11.6206 29.3684 12.1719 28.7444 13.3223C28.3201 14.1031 28.221 14.9455 28.3821 15.8156C28.509 16.5025 28.8079 17.1108 29.3034 17.6098C30.0761 18.389 31.0222 18.6955 32.1061 18.5708C33.2272 18.4429 34.0603 17.87 34.5945 16.8859C35.0482 16.0482 35.1427 15.1519 34.9305 14.2294C34.5806 12.6986 33.2969 11.5944 31.3334 11.599Z" fill="#1B1D1F"/>
<path fill-rule="evenodd" clip-rule="evenodd" d="M99.2309 0H55.3848V30H99.2309V0ZM69.7687 8.25994V14.8036V21.3164C69.7687 21.3303 69.769 21.3442 69.7694 21.358C69.77 21.3856 69.7707 21.413 69.7687 21.4396C69.7625 21.5151 69.7826 21.5597 69.8693 21.5474C69.89 21.5454 69.9106 21.546 69.9313 21.5467C69.9416 21.5471 69.9519 21.5474 69.9622 21.5474C70.3278 21.5474 70.6936 21.5476 71.0595 21.5478H71.0629C71.7946 21.5481 72.5268 21.5484 73.2589 21.5474C73.282 21.5474 73.3024 21.5477 73.3205 21.5479C73.391 21.5488 73.4253 21.5492 73.4416 21.5323C73.457 21.5163 73.4563 21.4847 73.455 21.4233C73.4545 21.4026 73.454 21.3784 73.454 21.3503V8.27842C73.454 8.26816 73.4537 8.25789 73.4533 8.24762C73.4526 8.22709 73.452 8.20655 73.454 8.18602C73.4618 8.10902 73.4354 8.06898 73.3518 8.07822C73.3354 8.08026 73.3182 8.07959 73.3008 8.07891L73.2949 8.07868C73.2881 8.07843 73.2813 8.07822 73.2744 8.07822C72.905 8.07822 72.5354 8.07805 72.1658 8.07788C71.4261 8.07753 70.6859 8.07719 69.9467 8.07822C69.9248 8.07822 69.9056 8.07793 69.8887 8.07768C69.8278 8.07677 69.7971 8.07631 69.7819 8.09138C69.7667 8.10657 69.7672 8.13755 69.7681 8.19975C69.7684 8.21723 69.7687 8.23718 69.7687 8.25994ZM88.1242 8.07867H82.6272C80.7953 8.07867 78.9635 8.07867 77.1332 8.07713C77.1257 8.07713 77.1182 8.07718 77.1107 8.07725C77.1043 8.07731 77.098 8.07739 77.0916 8.07747C77.0643 8.07781 77.0371 8.07815 77.0093 8.07713C76.9474 8.07405 76.9257 8.10331 76.9303 8.16029C76.9314 8.17769 76.931 8.1944 76.9307 8.21134C76.9305 8.2199 76.9303 8.22851 76.9303 8.23729V11.3636L76.9302 11.396C76.9299 11.463 76.9298 11.4961 76.9462 11.5122C76.9622 11.5279 76.9939 11.5276 77.0563 11.5271L77.0991 11.5268H80.5522C80.665 11.5268 80.7207 11.5268 80.7483 11.5547C80.7752 11.5819 80.7752 11.6358 80.7752 11.7424V21.3815C80.7752 21.4 80.775 21.4164 80.7747 21.431C80.774 21.4862 80.7735 21.5153 80.7878 21.5304C80.8034 21.5469 80.8368 21.5468 80.9067 21.5464L80.9409 21.5463H80.9873H84.2546C84.3586 21.5463 84.41 21.5463 84.4355 21.5206C84.4606 21.4953 84.4606 21.4453 84.4606 21.3461V11.707C84.4606 11.6862 84.4603 11.6678 84.46 11.6515C84.4591 11.592 84.4586 11.5608 84.4739 11.5448C84.4904 11.5274 84.5255 11.5276 84.5988 11.5281L84.6448 11.5284H88.1599C88.3116 11.5284 88.3116 11.5284 88.3132 11.379V11.3328V8.26809C88.3132 8.2468 88.3134 8.22787 88.3136 8.21105C88.3144 8.14335 88.3148 8.10955 88.2982 8.09308C88.2818 8.07681 88.2488 8.07726 88.1833 8.07816C88.166 8.0784 88.1464 8.07867 88.1242 8.07867Z" fill="#1B1D1F"/>
</svg>
